<svg width="283" height="255" viewBox="0 0 283 255" fill="none" xmlns="http://www.w3.org/2000/svg">
<path d="M1 67H281V1H1V67Z" fill="#D9D9D9" stroke="black" stroke-width="2"/>
<path d="M206 113.671V254H281V68H206V113.671Z" fill="#D9D9D9" stroke="black" stroke-width="2"/>
<path opacity="0.5" d="M211.052 63.4633C224.884 76.7625 212.456 102.733 211.721 107.667C210.986 112.6 204.22 130.624 204.22 130.624C182.221 84.7227 181.721 85.2272 137.221 68.2617C166.024 55.043 197.221 50.1642 211.052 63.4633Z" fill="url(#paint0_linear_608_3452)" stroke="black" stroke-width="2"/>
<path opacity="0.5" d="M265.501 68C270.5 49.5 280.5 39.9999 280.5 47C280.5 54.0001 282 59.5002 282 67C280.832 76.0487 281.001 78.5004 281.001 84.0002C281.001 89.5 265.501 68 265.501 68Z" fill="url(#paint1_linear_608_3452)" stroke="black" stroke-width="2"/>
<defs>
<linearGradient id="paint0_linear_608_3452" x1="211.986" y1="44.0598" x2="167.329" y2="81.2727" gradientUnits="userSpaceOnUse">
<stop stop-color="white"/>
<stop offset="0.677885" stop-color="#E6FF00"/>
</linearGradient>
<linearGradient id="paint1_linear_608_3452" x1="285.986" y1="33.0598" x2="241.329" y2="70.2727" gradientUnits="userSpaceOnUse">
<stop stop-color="white"/>
<stop offset="0.677885" stop-color="#E6FF00"/>
</linearGradient>
</defs>
</svg>
